<?xml version="1.0" encoding="UTF-8"?>
<svg id="_レイヤー_2" data-name="レイヤー 2" xmlns="http://www.w3.org/2000/svg" viewBox="0 0 902.69 141.73">
  <defs>
    <style>
      .cls-1 {
        fill: #ae9d6f;
      }

      .cls-2 {
        fill: #191210;
      }
    </style>
  </defs>
  <g id="_レイヤー_1-2" data-name="レイヤー 1">
    <g>
      <path class="cls-2" d="m193.53,141.73h10.51L165.5,0h-10.51l-38.54,141.73h10.51l12.04-44.29h42.48l12.04,44.29Zm-51.64-54.92l18.35-67.48,18.35,67.48h-36.7Z"/>
      <path class="cls-2" d="m426.34,0v97.87c0,18.35-14.87,33.22-33.22,33.22h0c-18.35,0-33.22-14.87-33.22-33.22V0h-10.58v97.93c0,24.19,19.61,43.8,43.8,43.8h0c24.19,0,43.8-19.61,43.8-43.8V0h-10.58Z"/>
      <path class="cls-2" d="m320.48,141.73l-34.13-55.23c19.49-4.43,34.05-21.87,34.05-42.71h0c0-24.19-19.61-43.8-43.8-43.8h-43.71v141.73h10.51v-54.14h33.12l33.46,54.14h10.51ZM243.39,10.58h33.13c18.35,0,33.22,14.87,33.22,33.22h0c0,18.35-14.87,33.22-33.22,33.22h-33.13V10.58Z"/>
      <path class="cls-2" d="m659.29,141.73h10.51L631.26,0h-10.51l-38.54,141.73h10.51l12.04-44.29h42.48l12.04,44.29Zm-51.64-54.92l18.35-67.48,18.35,67.48h-36.7Z"/>
      <path class="cls-2" d="m786.25,141.73l-34.13-55.23c19.49-4.43,34.05-21.87,34.05-42.71h0c0-24.19-19.61-43.8-43.8-43.8h-43.71v141.73h10.51v-54.14h33.12l33.46,54.14h10.51ZM709.16,10.58h33.13c18.35,0,33.22,14.87,33.22,33.22h0c0,18.35-14.87,33.22-33.22,33.22h-33.13V10.58Z"/>
      <polygon class="cls-2" points="542.85 0 509.56 53.86 476.28 0 465.77 0 465.77 106.3 465.77 141.73 476.28 141.73 476.28 106.3 476.28 17.01 504.31 62.36 509.56 70.87 514.82 62.36 542.85 17.01 542.85 106.3 542.85 141.73 553.36 141.73 553.36 106.3 553.36 0 542.85 0"/>
      <g>
        <rect class="cls-2" x="77.09" y="106.3" width="10.51" height="35.43"/>
        <g>
          <rect class="cls-2" y="106.3" width="10.51" height="35.43"/>
          <polygon class="cls-1" points="77.09 0 43.8 53.86 10.51 0 0 0 0 106.3 10.51 106.3 10.51 17.01 38.54 62.36 43.8 70.87 49.05 62.36 77.09 17.01 77.09 106.3 87.6 106.3 87.6 0 77.09 0"/>
        </g>
      </g>
      <polygon class="cls-2" points="902.69 0 892.17 0 825.6 107.72 825.6 0 815.09 0 815.09 141.73 825.6 141.73 825.6 124.72 853.63 79.37 892.17 141.73 902.69 141.73 858.89 70.87 902.69 0"/>
    </g>
  </g>
</svg>